# xmcd
#
# Track frame offsets:
#	182
#	13107
#	25612
#	35565
#	47275
#	59040
#	70205
#	82257
#	91092
#	101745
#	112922
#	124112
#	136510
#	148937
#	160617
#	175557
#	190670
#	205755
#	220080
#
# Disc length: 3225 seconds
#
# Revision: 4
# Processed by: cddbd v1.5.2PL0 Copyright (c) Steve Scherf et al.
# Submitted via: audiograbber 1.83.01
#
DISCID=fa0c9713
DTITLE=Rufus Thomas - Best Of
DYEAR=1996
DGENRE=Oldies
TTITLE0=Bear Cat  (Answer To Hound Dog)
TTITLE1=Carla and Rufus_Cause I Love You 
TTITLE2=Rufus and Friend_I Didn't Believe 
TTITLE3=The Dog
TTITLE4=Walkin' The Dog
TTITLE5=Can Your Monkey Do The Dog
TTITLE6=Somebody Stole My Dog
TTITLE7=Rufus and Carla_That's Really Some Good 
TTITLE8=Jump Back
TTITLE9=Little Sally Walker
TTITLE10=The World Is Round
TTITLE11=Sister's Got A Boyfriend
TTITLE12=Sophisticated Sissy
TTITLE13=The Memphis Train
TTITLE14=Do The Funky Chicken
TTITLE15=Do The Push and Pull - Part 1
TTITLE16=The Breakdown - Part 1
TTITLE17=Do The Penguin - Part 1
TTITLE18=Do The Funky Somethin' -  Godchildren Of Soul
EXTD=
EXTT0=
EXTT1=
EXTT2=
EXTT3=
EXTT4=
EXTT5=
EXTT6=
EXTT7=
EXTT8=
EXTT9=
EXTT10=
EXTT11=
EXTT12=
EXTT13=
EXTT14=
EXTT15=
EXTT16=
EXTT17=
EXTT18=
PLAYORDER=
